<?xml version="1.0" encoding="UTF-8"?>
<svg version="1.1" xmlns="http://www.w3.org/2000/svg" width="310" height="310">
<path d="M0 0 C1.73424477 -0.00856522 1.73424477 -0.00856522 3.50352478 -0.01730347 C4.77872986 -0.01842133 6.05393494 -0.01953918 7.36778259 -0.02069092 C8.71978898 -0.02531893 10.07179406 -0.03034357 11.42379761 -0.03573608 C15.10652085 -0.04887947 18.78922584 -0.05531091 22.47196889 -0.05974674 C24.7787235 -0.06267945 27.08547315 -0.06678503 29.39222527 -0.07125092 C36.62548394 -0.08494214 43.85873124 -0.09459607 51.09200197 -0.09845281 C59.40904847 -0.10291245 67.72592889 -0.12035518 76.04292494 -0.1494534 C82.48734235 -0.17120612 88.93171357 -0.18116457 95.37616724 -0.18249393 C99.21592145 -0.18353397 103.05551992 -0.18926632 106.89523506 -0.20731354 C122.03701178 -0.27458734 136.72014739 -0.29898047 151.5589447 3.14044189 C152.2189447 3.14044189 152.8789447 3.14044189 153.5589447 3.14044189 C153.5589447 3.80044189 153.5589447 4.46044189 153.5589447 5.14044189 C154.39296814 5.24356689 155.22699158 5.34669189 156.08628845 5.45294189 C178.05689956 9.80257919 196.4218331 26.93110461 209.5589447 44.14044189 C210.3014447 45.04149658 210.3014447 45.04149658 211.0589447 45.96075439 C225.40704404 66.81033625 229.51179078 94.6073248 225.18003845 119.16387939 C223.21890845 128.56250243 219.84745645 137.55147269 215.5589447 146.14044189 C214.8989447 146.47044189 214.2389447 146.80044189 213.5589447 147.14044189 C213.12001892 148.23872314 213.12001892 148.23872314 212.67222595 149.35919189 C206.62631464 164.46336331 190.2366246 178.13248105 176.5589447 186.14044189 C175.8989447 186.14044189 175.2389447 186.14044189 174.5589447 186.14044189 C174.2289447 186.80044189 173.8989447 187.46044189 173.5589447 188.14044189 C171.85191345 189.17559814 171.85191345 189.17559814 169.7464447 190.20294189 C169.05937439 190.54454346 168.37230408 190.88614502 167.66441345 191.23809814 C165.62304989 192.11296824 163.71410269 192.62160756 161.5589447 193.14044189 C158.54240507 194.17361709 155.53620185 195.23322412 152.53160095 196.30059814 C149.69817525 197.10110606 147.48067879 197.30724439 144.5589447 197.14044189 C144.2289447 197.80044189 143.8989447 198.46044189 143.5589447 199.14044189 C132.53155156 200.98563255 120.83160079 200.25877499 109.6839447 200.20294189 C107.9170189 200.19791208 106.1500917 200.19335182 104.38316345 200.18927002 C100.10838844 200.17839279 95.83368262 200.16121166 91.5589447 200.14044189 C91.5589447 196.14044189 91.5589447 196.14044189 92.72668457 194.49841309 C93.2740477 193.96294861 93.82141083 193.42748413 94.38536072 192.87579346 C95.31246605 191.95398285 95.31246605 191.95398285 96.25830078 191.0135498 C96.93630234 190.35933044 97.61430389 189.70511108 98.31285095 189.03106689 C99.00652267 188.34542664 99.7001944 187.65978638 100.41488647 186.95336914 C102.64117912 184.75611259 104.88060381 182.57285116 107.1214447 180.39044189 C109.3347492 178.21988207 111.54516425 176.0464618 113.75302124 173.87036133 C115.12728191 172.51749181 116.50504728 171.16816941 117.88696289 169.82312012 C121.80267223 165.98684799 125.42741703 162.04175487 128.88430786 157.78433228 C131.8418424 154.88109829 135.34894044 154.29098668 139.3089447 153.51544189 C148.06064212 151.45484995 156.17104606 148.77538634 162.5589447 142.14044189 C163.6108197 141.35669189 164.6626947 140.57294189 165.7464447 139.76544189 C174.98452107 131.90032804 179.90128446 119.90262242 181.5589447 108.14044189 C182.57771628 91.03683446 179.24967351 76.26585738 168.2464447 62.76544189 C156.40552945 50.23886117 140.48209085 44.91245433 123.62105179 43.90519714 C119.63796765 43.85368448 115.66259076 43.89039519 111.68052673 43.96661377 C110.200779 43.98247831 108.72101015 43.9964673 107.2412281 44.0087204 C104.1867465 44.0344583 101.13241264 44.06609354 98.07802582 44.10122681 C91.69468395 44.16600486 85.31252568 44.11890405 78.92925429 44.06586742 C76.83036821 44.04850313 74.73147621 44.03316529 72.63257027 44.01840973 C69.76727163 43.99813618 66.90198066 43.97709205 64.03669357 43.95524597 C59.47210774 43.92045213 54.90751027 43.88737471 50.34291077 43.85443115 C43.14751103 43.80229297 35.95212103 43.74892189 28.75673401 43.6950593 C20.53845496 43.63360332 12.3201655 43.57359571 4.10187507 43.51368427 C-12.7457801 43.39083353 -29.59342193 43.26624675 -46.4410553 43.14044189 C-45.5844259 38.8117295 -43.67896508 37.16718365 -40.4410553 34.14044189 C-39.18563871 32.91680801 -37.9357942 31.68743603 -36.6910553 30.45294189 C-36.09808655 29.87157471 -35.5051178 29.29020752 -34.8941803 28.69122314 C-33.34463726 27.18530216 -33.34463726 27.18530216 -32.4410553 25.14044189 C-31.7810553 25.14044189 -31.1210553 25.14044189 -30.4410553 25.14044189 C-30.4410553 24.48044189 -30.4410553 23.82044189 -30.4410553 23.14044189 C-29.21839905 21.94122314 -29.21839905 21.94122314 -27.3785553 20.45294189 C-22.12522899 16.01364453 -17.36034336 11.11174499 -12.54627991 6.20806885 C-11.91600891 5.56958008 -11.28573792 4.93109131 -10.6363678 4.27325439 C-10.06934143 3.69462646 -9.50231506 3.11599854 -8.91810608 2.51983643 C-6.0487653 -0.15979587 -3.81272797 0.01124616 0 0 Z " fill="#040304" transform="translate(73.44105529785156,56.85955810546875)"/>
<path d="M0 0 C0 6.93 0 13.86 0 21 C25.08 21 50.16 21 76 21 C74.82595471 25.69618115 72.63831133 27.73154265 69.28515625 30.97265625 C68.71421738 31.53697861 68.1432785 32.10130096 67.55503845 32.682724 C65.73115477 34.48322196 63.89741908 36.27325557 62.0625 38.0625 C60.2329068 39.85699654 58.40547812 41.65362221 56.58067322 43.45298767 C55.44530573 44.57142086 54.30687002 45.68674986 53.16505432 46.79859924 C50.81312586 49.10614781 48.83535184 51.24697224 47 54 C45.88372472 55.03289086 44.73516583 56.03160499 43.5625 57 C41.00749843 59.07268739 41.00749843 59.07268739 38.91455078 61.57543945 C35.81134274 63.88444467 32.32787156 63.36542132 28.61328125 63.29296875 C27.79627243 63.28872391 26.97926361 63.28447906 26.13749695 63.28010559 C23.52882893 63.26331691 20.92093438 63.22566519 18.3125 63.1875 C16.54363095 63.17245337 14.77474979 63.15876492 13.00585938 63.14648438 C8.67027504 63.11341286 4.33526864 63.0616299 0 63 C0.18852539 64.0837793 0.37705078 65.16755859 0.57128906 66.28417969 C2.849123 80.69510047 5.41898573 97.95414125 -3.51708984 110.49023438 C-12.44401226 121.5124255 -23.45633419 130.85499499 -34.51304626 139.67541504 C-36.12985016 140.95103542 -36.12985016 140.95103542 -37 143 C-37.66 143 -38.32 143 -39 143 C-39.495 143.99 -39.495 143.99 -40 145 C-40.99 144.34 -41.98 143.68 -43 143 C-43.29667227 139.86176992 -43.3987203 136.9208472 -43.37231445 133.78027344 C-43.37596512 132.82401566 -43.37961578 131.86775787 -43.38337708 130.88252258 C-43.39151042 127.70796169 -43.37784527 124.53390696 -43.36328125 121.359375 C-43.36276281 119.15700277 -43.36327989 116.95463007 -43.36479187 114.7522583 C-43.36470201 110.12855145 -43.35424778 105.50501845 -43.33618164 100.88134766 C-43.31354723 94.95854219 -43.31293936 89.03599212 -43.31969929 83.11315536 C-43.32304454 78.56121559 -43.31639778 74.00933385 -43.30657005 69.45740509 C-43.30272337 67.27415521 -43.30156763 65.09089887 -43.3031559 62.90764618 C-43.30352751 59.85074124 -43.29087736 56.7941608 -43.2746582 53.73730469 C-43.27713562 52.83629532 -43.27961304 51.93528595 -43.28216553 51.00697327 C-43.23193216 45.06276231 -42.93299383 40.15576795 -38.796875 35.54296875 C-37.87390625 34.70378906 -36.9509375 33.86460937 -36 33 C-34.89604093 31.91783842 -33.79734597 30.83028848 -32.703125 29.73828125 C-32.13722656 29.17689453 -31.57132813 28.61550781 -30.98828125 28.03710938 C-30.12783203 27.18342773 -30.12783203 27.18342773 -29.25 26.3125 C-28.36634766 25.44141602 -28.36634766 25.44141602 -27.46484375 24.55273438 C-24.35093236 21.56844684 -24.35093236 21.56844684 -22 18 C-21.34 18 -20.68 18 -20 18 C-19.67 17.01 -19.34 16.02 -19 15 C-17.65234375 13.67578125 -17.65234375 13.67578125 -15.9375 12.3125 C-12.29169689 9.32068631 -9.04740185 6.04977195 -5.796875 2.63671875 C-4.00503922 1.00459007 -2.55758046 0 0 0 Z " fill="#040404" transform="translate(69,111)"/>
<path d="M0 0 C2.14093018 0.39355469 2.14093018 0.39355469 4 1 C4.75653625 14.91552732 5.31380702 28.82777072 5.6579895 42.75981903 C5.82342817 49.2344467 6.04651412 55.69506685 6.4140625 62.16162109 C8.95886257 108.10007345 8.95886257 108.10007345 -3.23046875 122.6640625 C-9.72129962 129.87602682 -17.1228822 136.07994248 -24.98071289 141.7479248 C-28.01797745 143.66131678 -28.01797745 143.66131678 -29 146 C-29.66 146 -30.32 146 -31 146 C-31.226875 146.598125 -31.45375 147.19625 -31.6875 147.8125 C-33.33811133 150.56351888 -35.1972081 151.52484637 -38 153 C-39.58059263 151.41940737 -39.13909272 149.81812039 -39.15390015 147.62347412 C-39.16250061 146.67852585 -39.17110107 145.73357758 -39.17996216 144.75999451 C-39.18422211 143.71481155 -39.18848206 142.6696286 -39.19287109 141.59277344 C-39.20104858 140.4985054 -39.20922607 139.40423737 -39.21765137 138.27680969 C-39.24256423 134.63767046 -39.25903671 130.9985704 -39.2734375 127.359375 C-39.27876118 126.11985329 -39.28408485 124.88033157 -39.28956985 123.6032486 C-39.31081298 118.394447 -39.3299423 113.18565133 -39.34119225 107.97681808 C-39.35742477 100.5096008 -39.39057554 93.04290449 -39.44759309 85.57588363 C-39.4909709 79.69460933 -39.50693836 73.81345125 -39.51332474 67.93201447 C-39.52005459 65.42971337 -39.53532122 62.92742036 -39.55921555 60.4252243 C-39.59073504 56.92467936 -39.59092293 53.42545351 -39.58349609 49.92480469 C-39.59990143 48.88771866 -39.61630676 47.85063263 -39.63320923 46.78211975 C-39.57175522 39.71784718 -39.57175522 39.71784718 -36.60806274 35.99688721 C-35.31707169 35.00842804 -35.31707169 35.00842804 -34 34 C-33.236875 33.05125 -32.47375 32.1025 -31.6875 31.125 C-29.79556032 28.80927457 -27.79604293 26.91066832 -25.50390625 24.9921875 C-22.08684906 22.03948265 -18.91055108 18.92838657 -15.765625 15.6875 C-14.41017578 14.29337891 -14.41017578 14.29337891 -13.02734375 12.87109375 C-11.62563606 11.42207103 -10.22412056 9.97279936 -8.83447266 8.51220703 C-7.46890267 7.08037022 -6.08625547 5.66488096 -4.703125 4.25 C-3.89520508 3.40953125 -3.08728516 2.5690625 -2.25488281 1.703125 C-1.13871582 0.86007813 -1.13871582 0.86007813 0 0 Z " fill="#040404" transform="translate(190,103)"/>
<path d="M0 0 C0.99 0.33 1.98 0.66 3 1 C2.01 1 1.02 1 0 1 C0 0.67 0 0.34 0 0 Z " fill="#000000" transform="translate(300,181)"/>
<path d="M0 0 C0.33 0.66 0.66 1.32 1 2 C0.34 1.67 -0.32 1.34 -1 1 C-0.67 0.67 -0.34 0.34 0 0 Z " fill="#000000" transform="translate(223,110)"/>
<path d="" fill="#000000" transform="translate(0,0)"/>
<path d="" fill="#000000" transform="translate(0,0)"/>
<path d="M0 0 C2 1 2 1 2 1 Z " fill="#000000" transform="translate(48,239)"/>
<path d="M0 0 C2 1 2 1 2 1 Z " fill="#000000" transform="translate(188,227)"/>
<path d="" fill="#000000" transform="translate(0,0)"/>
<path d="" fill="#000000" transform="translate(0,0)"/>
<path d="" fill="#000000" transform="translate(0,0)"/>
<path d="M0 0 C2 1 2 1 2 1 Z " fill="#000000" transform="translate(50,70)"/>
<path d="" fill="#000000" transform="translate(0,0)"/>
<path d="" fill="#000000" transform="translate(0,0)"/>
<path d="" fill="#000000" transform="translate(0,0)"/>
<path d="" fill="#000000" transform="translate(0,0)"/>
<path d="" fill="#000000" transform="translate(0,0)"/>
<path d="" fill="#000000" transform="translate(0,0)"/>
<path d="" fill="#000000" transform="translate(0,0)"/>
<path d="" fill="#000000" transform="translate(0,0)"/>
<path d="" fill="#000000" transform="translate(0,0)"/>
<path d="" fill="#000000" transform="translate(0,0)"/>
<path d="" fill="#000000" transform="translate(0,0)"/>
<path d="" fill="#000000" transform="translate(0,0)"/>
<path d="" fill="#000000" transform="translate(0,0)"/>
<path d="" fill="#000000" transform="translate(0,0)"/>
<path d="" fill="#000000" transform="translate(0,0)"/>
<path d="" fill="#000000" transform="translate(0,0)"/>
<path d="" fill="#000000" transform="translate(0,0)"/>
<path d="" fill="#000000" transform="translate(0,0)"/>
<path d="" fill="#000000" transform="translate(0,0)"/>
<path d="" fill="#000000" transform="translate(0,0)"/>
<path d="" fill="#000000" transform="translate(0,0)"/>
<path d="" fill="#000000" transform="translate(0,0)"/>
<path d="" fill="#000000" transform="translate(0,0)"/>
<path d="" fill="#000000" transform="translate(0,0)"/>
<path d="" fill="#000000" transform="translate(0,0)"/>
<path d="" fill="#000000" transform="translate(0,0)"/>
<path d="" fill="#000000" transform="translate(0,0)"/>
<path d="" fill="#000000" transform="translate(0,0)"/>
<path d="" fill="#000000" transform="translate(0,0)"/>
<path d="" fill="#000000" transform="translate(0,0)"/>
<path d="" fill="#000000" transform="translate(0,0)"/>
<path d="" fill="#000000" transform="translate(0,0)"/>
<path d="" fill="#000000" transform="translate(0,0)"/>
<path d="" fill="#000000" transform="translate(0,0)"/>
<path d="" fill="#000000" transform="translate(0,0)"/>
<path d="" fill="#000000" transform="translate(0,0)"/>
<path d="" fill="#000000" transform="translate(0,0)"/>
<path d="" fill="#000000" transform="translate(0,0)"/>
<path d="" fill="#000000" transform="translate(0,0)"/>
<path d="" fill="#000000" transform="translate(0,0)"/>
<path d="" fill="#000000" transform="translate(0,0)"/>
<path d="" fill="#000000" transform="translate(0,0)"/>
<path d="" fill="#000000" transform="translate(0,0)"/>
<path d="" fill="#000000" transform="translate(0,0)"/>
<path d="" fill="#000000" transform="translate(0,0)"/>
<path d="" fill="#000000" transform="translate(0,0)"/>
<path d="" fill="#000000" transform="translate(0,0)"/>
<path d="" fill="#000000" transform="translate(0,0)"/>
<path d="" fill="#000000" transform="translate(0,0)"/>
<path d="" fill="#000000" transform="translate(0,0)"/>
<path d="" fill="#000000" transform="translate(0,0)"/>
<path d="" fill="#000000" transform="translate(0,0)"/>
<path d="" fill="#000000" transform="translate(0,0)"/>
<path d="" fill="#000000" transform="translate(0,0)"/>
<path d="" fill="#000000" transform="translate(0,0)"/>
<path d="" fill="#000000" transform="translate(0,0)"/>
<path d="" fill="#000000" transform="translate(0,0)"/>
<path d="" fill="#000000" transform="translate(0,0)"/>
<path d="" fill="#000000" transform="translate(0,0)"/>
<path d="" fill="#000000" transform="translate(0,0)"/>
<path d="" fill="#000000" transform="translate(0,0)"/>
<path d="" fill="#000000" transform="translate(0,0)"/>
<path d="" fill="#000000" transform="translate(0,0)"/>
<path d="" fill="#000000" transform="translate(0,0)"/>
<path d="" fill="#000000" transform="translate(0,0)"/>
<path d="" fill="#000000" transform="translate(0,0)"/>
<path d="" fill="#000000" transform="translate(0,0)"/>
<path d="" fill="#000000" transform="translate(0,0)"/>
<path d="" fill="#000000" transform="translate(0,0)"/>
<path d="" fill="#000000" transform="translate(0,0)"/>
<path d="" fill="#000000" transform="translate(0,0)"/>
<path d="" fill="#000000" transform="translate(0,0)"/>
<path d="" fill="#000000" transform="translate(0,0)"/>
<path d="" fill="#000000" transform="translate(0,0)"/>
<path d="" fill="#000000" transform="translate(0,0)"/>
<path d="" fill="#000000" transform="translate(0,0)"/>
<path d="" fill="#000000" transform="translate(0,0)"/>
<path d="" fill="#000000" transform="translate(0,0)"/>
<path d="" fill="#000000" transform="translate(0,0)"/>
<path d="" fill="#000000" transform="translate(0,0)"/>
<path d="" fill="#000000" transform="translate(0,0)"/>
<path d="" fill="#000000" transform="translate(0,0)"/>
<path d="" fill="#000000" transform="translate(0,0)"/>
<path d="" fill="#000000" transform="translate(0,0)"/>
<path d="" fill="#000000" transform="translate(0,0)"/>
<path d="" fill="#000000" transform="translate(0,0)"/>
<path d="" fill="#000000" transform="translate(0,0)"/>
<path d="" fill="#000000" transform="translate(0,0)"/>
<path d="" fill="#000000" transform="translate(0,0)"/>
<path d="" fill="#000000" transform="translate(0,0)"/>
<path d="" fill="#000000" transform="translate(0,0)"/>
<path d="" fill="#000000" transform="translate(0,0)"/>
<path d="" fill="#000000" transform="translate(0,0)"/>
<path d="" fill="#000000" transform="translate(0,0)"/>
<path d="" fill="#000000" transform="translate(0,0)"/>
<path d="" fill="#000000" transform="translate(0,0)"/>
<path d="" fill="#000000" transform="translate(0,0)"/>
<path d="" fill="#000000" transform="translate(0,0)"/>
<path d="" fill="#000000" transform="translate(0,0)"/>
<path d="" fill="#000000" transform="translate(0,0)"/>
<path d="" fill="#000000" transform="translate(0,0)"/>
<path d="" fill="#000000" transform="translate(0,0)"/>
<path d="" fill="#000000" transform="translate(0,0)"/>
<path d="" fill="#000000" transform="translate(0,0)"/>
<path d="" fill="#000000" transform="translate(0,0)"/>
<path d="" fill="#000000" transform="translate(0,0)"/>
<path d="" fill="#000000" transform="translate(0,0)"/>
<path d="" fill="#000000" transform="translate(0,0)"/>
<path d="" fill="#000000" transform="translate(0,0)"/>
<path d="" fill="#000000" transform="translate(0,0)"/>
<path d="" fill="#000000" transform="translate(0,0)"/>
<path d="" fill="#000000" transform="translate(0,0)"/>
<path d="" fill="#000000" transform="translate(0,0)"/>
<path d="" fill="#000000" transform="translate(0,0)"/>
<path d="" fill="#000000" transform="translate(0,0)"/>
<path d="" fill="#000000" transform="translate(0,0)"/>
<path d="" fill="#000000" transform="translate(0,0)"/>
<path d="" fill="#000000" transform="translate(0,0)"/>
<path d="" fill="#000000" transform="translate(0,0)"/>
<path d="" fill="#000000" transform="translate(0,0)"/>
<path d="" fill="#000000" transform="translate(0,0)"/>
<path d="" fill="#000000" transform="translate(0,0)"/>
<path d="" fill="#000000" transform="translate(0,0)"/>
<path d="" fill="#000000" transform="translate(0,0)"/>
<path d="" fill="#000000" transform="translate(0,0)"/>
<path d="" fill="#000000" transform="translate(0,0)"/>
<path d="" fill="#000000" transform="translate(0,0)"/>
</svg>
